<svg width="22" height="19" viewBox="0 0 22 19" fill="none" xmlns="http://www.w3.org/2000/svg">
<path d="M11.1053 3.52977L7.015 12.5298C6.98528 12.5954 6.9373 12.6511 6.87678 12.6901C6.81627 12.7292 6.74578 12.75 6.67375 12.7501H1.39656C1.27808 12.752 1.16075 12.7265 1.05374 12.6756C0.946728 12.6247 0.852935 12.5498 0.779684 12.4566C0.672723 12.3171 0.618163 12.1445 0.625531 11.9689C0.632899 11.7932 0.701727 11.6258 0.819996 11.4957L4.11156 7.87508L0.819996 4.25445C0.701485 4.12433 0.632509 3.95668 0.625139 3.78084C0.61777 3.60499 0.672476 3.43216 0.779684 3.29258C0.853127 3.19971 0.946982 3.12502 1.05396 3.07429C1.16094 3.02356 1.27818 2.99817 1.39656 3.00008H10.7641C10.8267 3.00014 10.8884 3.0159 10.9434 3.04593C10.9984 3.07596 11.045 3.1193 11.0789 3.17198C11.1129 3.22467 11.1331 3.28502 11.1377 3.34752C11.1423 3.41002 11.1312 3.47268 11.1053 3.52977ZM21.0212 0.960078C20.8743 0.822498 20.6797 0.747227 20.4784 0.750078H14.5C14.356 0.750134 14.2151 0.791622 14.0941 0.869588C13.9731 0.947555 13.8771 1.0587 13.8175 1.18977L9.82656 9.96945C9.8005 10.0266 9.7892 10.0893 9.79371 10.152C9.79821 10.2146 9.81837 10.2751 9.85234 10.3279C9.8863 10.3807 9.93299 10.4242 9.9881 10.4543C10.0432 10.4843 10.105 10.5001 10.1678 10.5001H15.5856L12.3175 17.6898C12.2736 17.7798 12.2482 17.8778 12.2428 17.9778C12.2374 18.0778 12.2521 18.1779 12.286 18.2722C12.3199 18.3664 12.3724 18.4529 12.4403 18.5266C12.5081 18.6003 12.5901 18.6596 12.6813 18.701C12.7725 18.7425 12.8711 18.7653 12.9712 18.768C13.0713 18.7707 13.171 18.7534 13.2643 18.717C13.3577 18.6806 13.4427 18.6258 13.5146 18.556C13.5864 18.4862 13.6435 18.4027 13.6825 18.3104L21.1825 1.81039C21.2468 1.66937 21.2658 1.51189 21.2369 1.35963C21.208 1.20736 21.1327 1.06778 21.0212 0.960078Z" fill="#3CC2CC"/>
</svg>
