<svg width="23" height="19" viewBox="0 0 23 19" fill="none" xmlns="http://www.w3.org/2000/svg">
<path d="M21.5 3H19.25V1.5C19.25 1.30109 19.171 1.11032 19.0303 0.96967C18.8897 0.829018 18.6989 0.75 18.5 0.75H5C4.80109 0.75 4.61032 0.829018 4.46967 0.96967C4.32902 1.11032 4.25 1.30109 4.25 1.5V3H2C1.60218 3 1.22064 3.15804 0.93934 3.43934C0.658035 3.72064 0.5 4.10218 0.5 4.5V6C0.5 6.99456 0.895088 7.94839 1.59835 8.65165C1.94657 8.99987 2.35997 9.27609 2.81494 9.46455C3.26991 9.653 3.75754 9.75 4.25 9.75H4.59219C5.03398 11.1501 5.87634 12.39 7.01516 13.3166C8.15398 14.2431 9.53933 14.8157 11 14.9634V17.25H8.75C8.55109 17.25 8.36032 17.329 8.21967 17.4697C8.07902 17.6103 8 17.8011 8 18C8 18.1989 8.07902 18.3897 8.21967 18.5303C8.36032 18.671 8.55109 18.75 8.75 18.75H14.75C14.9489 18.75 15.1397 18.671 15.2803 18.5303C15.421 18.3897 15.5 18.1989 15.5 18C15.5 17.8011 15.421 17.6103 15.2803 17.4697C15.1397 17.329 14.9489 17.25 14.75 17.25H12.5V14.9606C15.4944 14.6578 17.9788 12.5569 18.8825 9.75H19.25C20.2446 9.75 21.1984 9.35491 21.9016 8.65165C22.6049 7.94839 23 6.99456 23 6V4.5C23 4.10218 22.842 3.72064 22.5607 3.43934C22.2794 3.15804 21.8978 3 21.5 3ZM4.25 8.25C3.65326 8.25 3.08097 8.01295 2.65901 7.59099C2.23705 7.16903 2 6.59674 2 6V4.5H4.25V7.5C4.25 7.75 4.26219 8 4.28656 8.25H4.25ZM21.5 6C21.5 6.59674 21.2629 7.16903 20.841 7.59099C20.419 8.01295 19.8467 8.25 19.25 8.25H19.2031C19.2339 7.97293 19.2495 7.6944 19.25 7.41562V4.5H21.5V6Z" fill="#3CC2CC"/>
</svg>
